<?xml version="1.0" encoding="UTF-8"?><svg id="Layer_2" xmlns="http://www.w3.org/2000/svg" viewBox="0 0 72.76 19.4"><defs><style>.cls-1{fill:#ffe324;}.cls-2{fill:#c8d9f9;}</style></defs><g id="Layer_2-2"><path class="cls-2" d="M5.06,7.36c.48,0,.85-.02,1.12-.05.26-.04.48-.08.65-.13s.29-.11.37-.18c.08-.07.13-.16.16-.26.03-.1.04-.19.01-.28-.02-.09-.08-.17-.16-.24s-.22-.15-.4-.23-.43-.14-.74-.18-.69-.08-1.11-.13c-.71-.06-1.31-.17-1.79-.32-.48-.15-.88-.33-1.2-.53s-.54-.44-.68-.69c-.14-.25-.22-.53-.23-.82-.01-.3.02-.58.1-.86.1-.44.26-.81.49-1.12.23-.3.55-.56.95-.76.4-.2.92-.35,1.55-.44.63-.09,1.38-.13,2.26-.13.78,0,1.46.04,2.04.13.58.09,1.07.21,1.45.35s.68.34.89.56.35.48.39.74c.04.27.03.58-.04.93-.02.02-.03.05-.04.1,0,.05-.02.1-.02.15,0,.05-.02.1-.05.16-.14-.02-.28-.03-.44-.03-.16,0-.33,0-.51,0h-1.24c-.22,0-.42,0-.59.02.02-.02.02-.06.02-.12s0-.09.02-.11c.03-.13.03-.24,0-.35-.03-.1-.12-.19-.26-.26-.14-.07-.36-.12-.66-.17-.3-.04-.7-.07-1.21-.07-.39,0-.73,0-1,.02-.28.02-.49.05-.65.1-.16.05-.27.11-.33.17-.06.06-.1.14-.11.23-.02.09-.03.17-.02.25,0,.08.05.15.12.22.07.07.21.14.41.22.2.08.47.15.79.21.32.06.74.12,1.24.18.78.06,1.44.19,1.97.39.53.2.93.43,1.21.71.27.28.44.6.51.97.07.36.04.78-.08,1.24-.1.36-.22.67-.37.94-.15.26-.36.49-.63.68s-.6.35-.98.49c-.38.13-.85.22-1.41.28-.56.05-1.19.08-1.88.08-.79,0-1.49-.05-2.11-.15s-1.12-.23-1.51-.38-.7-.35-.91-.59c-.21-.24-.34-.51-.41-.79-.06-.28-.06-.59.01-.92.02-.06.03-.1.04-.14s.02-.08.03-.13c0-.04.02-.09.05-.13.19.02.42.03.7.05s.55.03.84.03c.24,0,.48,0,.71-.02.23-.01.44-.02.64-.02-.03,0-.05.02-.05.04s0,.04-.02.08c-.05.21-.02.38.08.52.1.14.31.25.63.34.32.08.78.13,1.37.13Z"/><path class="cls-2" d="M19.73,9.22h-9.26c.13-.39.25-.81.37-1.27.12-.45.24-.94.37-1.48.13-.53.27-1.12.43-1.76.12-.48.23-.93.33-1.34.1-.42.2-.81.29-1.17.09-.36.17-.71.25-1.04.07-.33.14-.65.22-.94h9.26c-.02.13-.06.29-.11.48-.05.19-.1.36-.15.52-.04.18-.09.39-.14.61-.06.22-.1.39-.13.5-.41,0-.85,0-1.31,0-.47,0-.94,0-1.43-.01-.48,0-.96,0-1.43,0h-2.42l.83-1.56c-.04.18-.09.4-.16.66-.06.26-.13.52-.2.8-.07.28-.15.56-.22.85-.08.28-.15.55-.21.81-.06.26-.12.5-.17.72-.09.3-.17.61-.25.92-.08.31-.15.61-.22.91s-.14.58-.2.84-.13.51-.19.75-.1.45-.13.64l-.02-1.66h3.91c.49,0,.97,0,1.43-.01s.89,0,1.27,0c-.04.15-.09.34-.15.56-.06.22-.12.43-.19.62-.02.18-.06.36-.11.56-.05.2-.09.37-.13.52ZM14.1,5.54l.47-1.82h2.6c.47,0,.94,0,1.4-.01.46,0,.9-.01,1.31-.02s.79-.01,1.13-.03c-.06.15-.11.35-.17.59-.06.24-.12.48-.19.73-.07.24-.12.45-.16.62-.33-.02-.7-.02-1.1-.02s-.84,0-1.3-.01c-.46,0-.92-.01-1.4-.01h-2.59Z"/><path class="cls-2" d="M22.99.22h9.36c-.04.17-.09.36-.16.58-.06.22-.12.43-.17.64s-.1.43-.16.67c-.06.24-.11.45-.17.64-.56-.02-1.11-.04-1.66-.04s-1.07,0-1.58,0c-.51,0-.98,0-1.4,0-.64,0-1.37,0-2.18,0-.81,0-1.66.02-2.54.04.06-.18.13-.38.19-.62.06-.24.11-.47.16-.68.05-.22.1-.44.17-.65.06-.21.11-.4.13-.58ZM25.86,1.34h3.04c-.11.58-.25,1.15-.4,1.73-.16.58-.3,1.14-.43,1.68-.13.54-.26,1.05-.38,1.53-.12.48-.23.92-.31,1.32-.08.4-.16.74-.22,1.01s-.12.47-.16.61c-.12,0-.28,0-.47-.01-.19,0-.38-.01-.57-.01h-1.05c-.19,0-.37,0-.55.01-.17,0-.34.01-.5.01.03-.13.09-.33.16-.6s.16-.61.26-1,.21-.83.34-1.31.26-.99.4-1.54c.14-.55.29-1.11.44-1.7.15-.58.28-1.16.4-1.72Z"/><path class="cls-2" d="M33.03.22h9.36c-.04.17-.09.36-.16.58-.06.22-.12.43-.17.64s-.1.43-.16.67c-.06.24-.11.45-.17.64-.56-.02-1.11-.04-1.66-.04s-1.07,0-1.58,0c-.51,0-.98,0-1.4,0-.64,0-1.37,0-2.18,0-.81,0-1.66.02-2.54.04.06-.18.13-.38.19-.62.06-.24.11-.47.16-.68.05-.22.1-.44.17-.65.06-.21.11-.4.13-.58ZM35.9,1.34h3.04c-.11.58-.25,1.15-.4,1.73-.16.58-.3,1.14-.43,1.68-.13.54-.26,1.05-.38,1.53-.12.48-.23.92-.31,1.32-.08.4-.16.74-.22,1.01s-.12.47-.16.61c-.12,0-.28,0-.47-.01-.19,0-.38-.01-.57-.01h-1.05c-.19,0-.37,0-.55.01-.17,0-.34.01-.5.01.03-.13.09-.33.16-.6s.16-.61.26-1,.21-.83.34-1.31.26-.99.4-1.54c.14-.55.29-1.11.44-1.7.15-.58.28-1.16.4-1.72Z"/><path class="cls-2" d="M50.38,9.22h-9.26c.13-.39.25-.81.37-1.27.12-.45.24-.94.37-1.48.13-.53.27-1.12.43-1.76.12-.48.23-.93.33-1.34.1-.42.2-.81.29-1.17.09-.36.17-.71.25-1.04.07-.33.14-.65.22-.94h9.26c-.02.13-.06.29-.11.48-.05.19-.1.36-.15.52-.04.18-.09.39-.14.61-.06.22-.1.39-.13.5-.41,0-.85,0-1.31,0-.47,0-.94,0-1.43-.01-.48,0-.96,0-1.43,0h-2.42l.83-1.56c-.04.18-.09.4-.16.66-.06.26-.13.52-.2.8-.07.28-.15.56-.22.85-.08.28-.15.55-.21.81-.06.26-.12.5-.17.72-.09.3-.17.61-.25.92-.08.31-.15.61-.22.91-.07.3-.14.58-.2.84s-.13.51-.19.75-.1.45-.13.64l-.02-1.66h3.91c.49,0,.97,0,1.43-.01.46,0,.89,0,1.27,0-.04.15-.09.34-.15.56-.06.22-.12.43-.19.62-.02.18-.06.36-.11.56-.05.2-.09.37-.13.52ZM44.76,5.54l.47-1.82h2.6c.47,0,.94,0,1.4-.01.46,0,.9-.01,1.31-.02s.79-.01,1.13-.03c-.06.15-.11.35-.17.59-.06.24-.12.48-.19.73-.07.24-.12.45-.16.62-.33-.02-.7-.02-1.1-.02s-.84,0-1.3-.01c-.46,0-.92-.01-1.4-.01h-2.59Z"/><path class="cls-2" d="M53.76.22h6.26c.62,0,1.16.07,1.63.2s.85.34,1.14.61c.29.27.49.6.59.99.1.39.09.83-.03,1.33-.11.4-.27.74-.49,1.03-.21.28-.49.52-.84.7-.35.18-.78.32-1.29.41-.51.1-1.11.15-1.79.16l1.36-.42-.17.68-1.24-.37c.6.02,1.1.07,1.51.13.41.06.73.15.97.27.24.12.41.3.53.53.12.23.2.54.25.94.02.25.04.49.07.72s.06.44.09.64c.03.19.05.35.07.47h-2.65c-.17,0-.29-.02-.37-.07-.08-.05-.14-.16-.17-.32-.03-.17-.06-.44-.1-.83-.05-.25-.08-.47-.1-.65-.02-.19-.06-.34-.13-.44-.06-.11-.15-.19-.26-.26-.11-.06-.25-.11-.44-.13-.18-.02-.41-.04-.68-.04h-.83c-.13,0-.27,0-.41,0-.14,0-.31,0-.51,0-.2,0-.43,0-.71,0l.43-1.98c.13,0,.29.01.5.02.2,0,.44,0,.72,0s.57,0,.88.01c.31,0,.63.01.97.01.36,0,.66-.04.91-.11.25-.07.45-.18.61-.32.16-.14.26-.32.31-.53.07-.24.09-.44.04-.61s-.12-.3-.23-.38c-.11-.09-.26-.16-.47-.21-.2-.05-.45-.08-.74-.08h-.99c-.2,0-.41,0-.63.01-.22,0-.42.01-.62.01s-.38,0-.56.01c-.18,0-.31.01-.41.01l.7-.97c-.18.76-.36,1.52-.55,2.27-.19.76-.37,1.48-.54,2.18-.17.7-.32,1.34-.44,1.92-.12.58-.2,1.07-.25,1.47h-3.14c.13-.44.25-.88.35-1.33.11-.44.23-.92.37-1.44.14-.52.29-1.09.44-1.73.24-.95.45-1.78.62-2.48.17-.7.33-1.37.46-2.02Z"/><path class="cls-1" d="M18.73,17.28c.48,0,.85-.02,1.12-.05.26-.04.48-.08.65-.13s.29-.11.37-.18c.08-.07.13-.16.16-.26.03-.1.04-.19.01-.28s-.08-.17-.16-.24-.22-.15-.4-.23-.43-.14-.74-.18-.69-.08-1.11-.13c-.71-.06-1.31-.17-1.79-.32-.48-.15-.88-.33-1.2-.53s-.54-.44-.68-.69c-.14-.25-.22-.53-.23-.82-.01-.3.02-.58.1-.86.1-.44.26-.81.49-1.12s.55-.56.95-.76c.4-.2.92-.35,1.55-.44.63-.09,1.38-.13,2.26-.13.78,0,1.46.04,2.04.13.58.09,1.07.21,1.45.35.38.15.68.34.89.56s.35.48.39.74c.04.27.03.58-.04.93-.02.02-.03.05-.04.1,0,.05-.02.1-.02.15,0,.05-.02.1-.05.16-.14-.02-.28-.03-.44-.03-.16,0-.33,0-.51,0h-1.24c-.22,0-.42,0-.59.02.02-.02.02-.06.02-.12s0-.09.02-.11c.03-.13.03-.24,0-.35-.03-.1-.12-.19-.26-.26-.14-.07-.36-.12-.66-.17-.3-.04-.7-.07-1.21-.07-.39,0-.73,0-1,.02-.28.02-.49.05-.65.1-.16.05-.27.11-.33.17-.06.06-.1.14-.11.23-.02.09-.03.17-.02.25,0,.08.05.15.12.22.07.07.21.14.41.22.2.08.47.15.79.21.32.06.74.12,1.24.18.78.06,1.44.19,1.97.39.53.2.93.43,1.21.71s.44.6.51.97c.07.36.04.78-.08,1.24-.1.36-.22.67-.37.94-.15.26-.36.49-.63.68s-.6.35-.98.49-.85.22-1.41.28c-.56.05-1.19.08-1.88.08-.79,0-1.49-.05-2.11-.15-.61-.1-1.12-.23-1.51-.38-.4-.15-.7-.35-.91-.59s-.34-.51-.41-.79c-.06-.28-.06-.59.01-.92.02-.06.03-.1.04-.14s.02-.08.03-.13c0-.04.02-.09.05-.13.19.02.42.03.7.05.27.02.55.03.84.03.24,0,.48,0,.71-.02.23-.01.44-.02.64-.02-.03,0-.05.02-.05.04,0,.02,0,.04-.02.08-.05.21-.02.38.08.52.1.14.31.25.63.34.32.08.78.13,1.37.13Z"/><path class="cls-1" d="M36.71,15.09c-.14.57-.35,1.08-.61,1.54s-.58.86-.96,1.21-.81.63-1.31.85c-.5.22-1.05.39-1.67.52-.62.12-1.31.19-2.07.19-.88,0-1.63-.09-2.26-.26s-1.14-.41-1.55-.71-.73-.67-.94-1.11c-.22-.44-.33-.92-.35-1.45-.02-.53.05-1.11.2-1.73.14-.59.35-1.12.61-1.58.26-.46.58-.86.95-1.2.38-.34.81-.62,1.31-.83s1.05-.38,1.67-.48c.62-.1,1.3-.16,2.05-.16,1.02,0,1.9.12,2.62.35.72.24,1.28.58,1.69,1.04.41.46.66,1.01.76,1.66.1.64.05,1.36-.14,2.15ZM30.42,16.99c.45,0,.85-.04,1.21-.13.36-.08.67-.22.94-.41.27-.19.49-.43.65-.72s.3-.62.41-1c.09-.38.12-.73.08-1.03-.03-.3-.14-.56-.31-.78-.18-.22-.43-.38-.76-.5s-.74-.18-1.25-.18c-.44,0-.84.05-1.21.14-.36.09-.68.23-.94.41-.26.18-.48.42-.66.7-.18.28-.31.61-.4.99-.1.39-.14.75-.11,1.07.03.32.13.59.31.8.17.21.43.37.76.48.34.11.76.16,1.26.16Z"/><path class="cls-1" d="M45.7,13.86s.02-.07.02-.08c0-.02,0-.03.02-.05.02-.02.02-.04.02-.05.09-.36.07-.64-.05-.84-.12-.2-.37-.34-.74-.42-.37-.08-.86-.12-1.46-.12-.35,0-.67.02-.95.06s-.53.11-.75.22c-.22.1-.41.24-.58.4s-.31.36-.43.59c-.12.23-.22.51-.29.83-.1.38-.15.7-.13.97.02.27.08.51.18.7.1.2.26.35.46.47.2.12.45.21.76.28.3.06.65.1,1.04.1.54,0,.97-.05,1.31-.16.34-.11.6-.26.8-.46s.34-.45.42-.76c0-.02,0-.06,0-.11s0-.09.01-.12c.16,0,.33,0,.5,0s.34,0,.5,0h.5c.26,0,.52,0,.77,0,.25,0,.49,0,.73,0,0,.04-.02.08-.02.13,0,.05-.01.1-.01.14s0,.1-.01.14c-.13.45-.28.86-.46,1.23-.18.37-.42.7-.71,1s-.66.54-1.09.75c-.44.21-.95.36-1.55.46-.6.1-1.29.15-2.08.15s-1.54-.07-2.16-.2-1.16-.35-1.6-.64c-.44-.29-.77-.65-1-1.07-.22-.43-.35-.93-.39-1.49-.04-.57.03-1.2.21-1.9.13-.55.32-1.05.59-1.49.26-.44.58-.82.96-1.13.38-.31.8-.58,1.28-.8.48-.22,1.02-.38,1.63-.47.6-.1,1.26-.14,1.97-.14.76,0,1.44.06,2.03.17s1.09.27,1.49.47c.4.2.73.44.97.71.24.27.4.58.47.92.08.34.07.71-.03,1.1-.02.04-.03.09-.05.16-.02.06-.03.12-.05.17-.02.05-.05.11-.09.19-.23-.02-.47-.02-.73-.02h-1.25c-.16,0-.32,0-.49,0s-.33,0-.5.02Z"/><path class="cls-1" d="M51.41,19.14h-3.1c.1-.34.2-.68.28-1.01s.17-.67.26-1.03c.09-.35.19-.73.29-1.13s.21-.85.33-1.33.23-.92.32-1.33c.1-.4.18-.78.26-1.14.08-.36.16-.7.25-1.03s.17-.67.24-1h3.1c-.1.34-.2.67-.29,1s-.18.67-.26,1.02c-.08.35-.18.73-.28,1.14-.1.41-.22.85-.34,1.33-.12.48-.23.92-.32,1.33-.09.4-.18.78-.26,1.13-.08.35-.17.7-.25,1.03-.08.34-.16.68-.23,1.02Z"/><path class="cls-1" d="M64.12,19.14h-3.48c0-.14,0-.34,0-.58-.01-.24-.04-.53-.07-.86s-.07-.69-.1-1.09c-.03-.39-.06-.79-.11-1.21s-.09-.81-.15-1.2c-.06-.39-.11-.76-.17-1.11-.06-.3-.11-.59-.14-.85-.03-.26-.06-.49-.08-.7-.03-.21-.05-.38-.07-.52l.58.36h-.9l.73-.37c-.09.14-.2.32-.33.53s-.28.44-.45.7c-.17.26-.36.55-.59.88-.26.42-.54.86-.84,1.33-.3.47-.6.94-.88,1.4-.28.46-.55.91-.82,1.34-.26.43-.5.81-.7,1.15-.2.34-.36.6-.47.79h-3.48c.23-.33.5-.71.82-1.15.31-.44.64-.91.98-1.4s.69-1,1.04-1.51c.36-.52.7-1.03,1.02-1.54.32-.51.63-.98.92-1.43.29-.44.54-.84.76-1.18.22-.34.39-.61.52-.79h4.79c.02.21.06.48.12.82s.12.72.19,1.16c.07.44.15.91.23,1.41s.17,1.01.27,1.54c.1.52.19,1.03.29,1.52s.19.95.29,1.39c.1.43.18.82.26,1.16ZM55.26,15.54c.22,0,.48,0,.79,0,.31,0,.62.01.94.01h2.63c.3,0,.61,0,.95-.01s.65-.01.95-.02.57,0,.8.02l-.4,1.92c-.3,0-.61-.01-.92-.02-.31,0-.63,0-.95-.01-.32,0-.63,0-.92,0h-1.59c-.3,0-.61,0-.94,0s-.65,0-.98.01-.62.01-.89.02l.54-1.92Z"/><path class="cls-1" d="M72.11,19.14h-7.61c.06-.21.13-.46.22-.77.09-.3.18-.66.27-1.06.09-.4.2-.83.32-1.28.12-.45.24-.92.36-1.4.18-.7.34-1.33.48-1.9.14-.57.26-1.08.36-1.51.1-.44.19-.8.25-1.09h3.14c-.05.13-.1.3-.16.52-.06.22-.12.48-.19.77-.07.29-.16.61-.25.95-.1.34-.2.71-.3,1.09-.1.38-.2.78-.29,1.18-.08.31-.16.62-.23.92-.08.3-.15.59-.22.87-.07.28-.13.54-.19.79s-.1.46-.12.62l-.23-1.24h1.05c.41,0,.84,0,1.28,0,.44,0,.89,0,1.35,0s.91,0,1.35-.02c-.08.21-.15.42-.2.64-.05.22-.11.43-.16.63-.05.22-.1.43-.16.65s-.1.43-.13.64Z"/></g></svg>